<svg xmlns="http://www.w3.org/2000/svg" viewBox="0 0 1084.5 1080"><defs><style>.cls-1{fill:#fddb58;}.cls-2{fill:#e95531;}.cls-3{fill:#315984;}.cls-4{fill:none;stroke:#315984;stroke-linecap:round;stroke-linejoin:round;stroke-width:3px;}</style></defs><g id="Layer_1" data-name="Layer 1"><path class="cls-1" d="M920.44,127.05A46.28,46.28,0,0,0,905,120.19c-5.7-1.47-13.64-3.51-22.5-.21a31.84,31.84,0,0,0-13.71,10.28,36.89,36.89,0,0,0-6.64,13.07,41.37,41.37,0,0,0-.86,23.36A41.88,41.88,0,0,0,870.09,183c3.75,4.6,8,9.83,15.42,12.43,11.75,4.12,22.76-1.41,25.93-3,6.43-3.23,10.13-7.36,15.43-13.29,7.58-8.48,11.38-12.72,12.43-18.64C941.8,146.39,928.85,132.9,920.44,127.05Z"/><path class="cls-1" d="M246.51,756.57c-13.89,3.94-19.78,25.93-21.85,33.69-1.79,6.7-2,11.32-2.51,27.06-1.43,42.81-1,41.73-1.35,42.59-12.66,34.15-51.29,29.05-61.71,64.28-6.22,21,2.53,39.76,4.5,43.72,14.08,28.3,47,35.84,61.71,39.21,52.56,12,98.66-13.27,113.14-21.21C363.7,972,359.52,967,385.37,953.12c45.53-24.52,60.84-10.28,93.86-30.21,30.24-18.26,43.83-46.17,62.36-84.22,20-41.17,18.23-62.1,16.71-71.36-1.12-6.8-4.24-24.32-18.64-37.28-10-9-26.75-17-34.72-11.57-2.87,2-3.09,4.65-9,9.64-2.56,2.17-6.52,5.51-10.28,6.43-8,2-15-7.1-25.72-16.07-3.08-2.57-33.4-27.88-48.21-20.09-6.55,3.44-4.48,10.42-13.74,15.26-6.89,3.59-10.41,1-17.41,5.93-3.35,2.38-5.13,4.81-9.51,5.81-3.28.74-3.85-.27-7.56.48-3.9.79-3.66,2-10.28,4.66-5.15,2.08-7.71,3.24-10.25,2.29-2.08-.78-3.05-2.39-4.38-2-1.63.52-2,3.56-2.09,4.26C335.17,744.45,321.4,757.72,320,759c-4.57,4-14.17,12.39-27.17,13.43C270.39,774.18,261.74,752.25,246.51,756.57Z"/><path class="cls-2" d="M881.65,377.76c-20.85-12.55-38.41-14.94-51.43-16.71-19.09-2.6-26.08.32-30.21,3.21-8.14,5.68-6,11.76-14.79,21.21-10.57,11.38-28.59,18.65-37.28,12.86-5.9-3.92-3-10.85-9-14.78-8.31-5.44-24.34,1-33.43,10.92-8.46,9.29-8.85,19.43-10.93,28.29-3,12.87-9.23,21.5-61.71,68.79-36.72,33.07-54.9,48-51.43,54.64,2.25,4.33,10.73-.41,24.43,5.14,14.63,5.94,16.46,16,31.5,27,10.42,7.61,19.94,10.35,30.85,13.5,41.32,11.91,80.71-1.91,105.43-10.93,18.3-6.67,11-6.16,48.86-23.14,55-24.63,67-24.19,86.14-41.14,11.33-10,31.13-27.53,33.43-53.36C946.23,416.63,889.81,382.67,881.65,377.76ZM835.8,498.83c-2.44,5.52-10.84,6.65-12.43,6.86-5.56.74-6.18-1.25-10.72-.86-9.37.8-9.78,9.56-20.14,11.79-1.36.29-10,2.16-16.29-2.36-2.15-1.56-2.91-3.09-5.35-3.64-3.88-.88-5.75,2.11-10.5,3.21-6.73,1.57-15.11-1.6-16.07-5.78-.54-2.33,1.3-4.6,2.78-6.43,3.92-4.85,7.9-4.59,12-8.15,3.67-3.18,3.33-5.88,6.22-11.78,1.36-2.8,7.07-13.72,17.78-19.5,2.13-1.15,11.94-6.14,23.79-3.43,15.68,3.58,22.13,17.73,27.43,29.36C836.14,492.16,837.19,495.67,835.8,498.83Z"/><path class="cls-3" d="M708.33,245.67a161.68,161.68,0,0,1,4.35,35.46A107.08,107.08,0,0,0,714,296c.92,6.2,2.17,12.4,5,18.07,8.58,17.53,31.35,24.12,49,17.46,12.24-4.63,21.7-14.85,26.37-27,.62-1.59-2.29-1.66-2.78-.38-4,10.38-11.57,19.36-21.7,24.17a36.21,36.21,0,0,1-20.92,3.1c-10.74-1.5-20.7-7-26.21-16.59-3-5.29-4.45-11.31-5.43-17.27a103.3,103.3,0,0,1-1.62-15.08c-.1-6-.3-12-1-18a171.65,171.65,0,0,0-3.43-19.62c-.33-1.4-3.23-.64-2.9.78Z"/><path class="cls-3" d="M734.64,261.76a26.7,26.7,0,0,1-6.76,17.7c-1.32,1.43-2.65,2.66-2.18,4.76.61,2.81,3.32,5.08,5.4,6.81.72.6,3.39-.52,2.7-1.09-2-1.68-4.81-3.93-5.25-6.73-.36-2.23,2.09-3.74,3.28-5.29A28.13,28.13,0,0,0,737.54,261c0-.75-2.89-.26-2.9.77Z"/><path class="cls-3" d="M737.63,301.1a17.92,17.92,0,0,0,9.42,0,23.14,23.14,0,0,0,7.48-4.2c3-2.33,5.86-4.87,8.67-7.44,1.78-1.62,3.5-3.34,5.41-4.8a8.87,8.87,0,0,1,1.9-1.19,4.36,4.36,0,0,1,1.53-.35,6.51,6.51,0,0,1,5.6,3c1.5,2.54,1,5.91.2,8.59a16.37,16.37,0,0,1-4.26,7.21,20.54,20.54,0,0,1-11.74,5c-.61.06-1.54.44-1.6,1.16s.75,1,1.33.92a25.92,25.92,0,0,0,11.73-4.1,18.62,18.62,0,0,0,8.21-15.59,8,8,0,0,0-4.65-7.4,9.59,9.59,0,0,0-6-.68,11.84,11.84,0,0,0-4.78,2.6c-2.19,1.79-4.22,3.8-6.32,5.7-3.22,2.9-6.52,6-10.25,8.24a13.17,13.17,0,0,1-10.23,1.39,2.07,2.07,0,0,0-2,.55.81.81,0,0,0,.37,1.37Z"/><path class="cls-3" d="M750.54,250.75a24.28,24.28,0,0,1,1.5,7.74c0,.68.7.94,1.32.87s1.62-.43,1.6-1.13a25.51,25.51,0,0,0-1.52-8.25c-.24-.65-1.12-.72-1.7-.55s-1.44.65-1.2,1.32Z"/><path class="cls-3" d="M720.69,259.21a24.81,24.81,0,0,1,1.51,8c0,.51,2.92.07,2.9-.77a24.87,24.87,0,0,0-1.51-8c-.16-.45-1.27-.16-1.57-.07s-1.48.42-1.33.85Z"/><path class="cls-3" d="M703.59,256a50.66,50.66,0,0,0,10.71-17.76c2-5.94,2.88-12.22,4.69-18.22a122.65,122.65,0,0,1,4.56-12.58l-2.82.08a28.24,28.24,0,0,0,1.48,10.75c1,2.85,2.3,6,4.62,8,2.58,2.25,7.58,2.86,9.9-.16,1.15-1.5.28-3.21-.31-4.76a31.29,31.29,0,0,1-1.24-4.14,22.12,22.12,0,0,1-.62-7.33,17.7,17.7,0,0,1,2.61-7.08l-2.81.3a53.62,53.62,0,0,0,16.09,27.79c6.6,6,14.52,10,22.51,13.78A62.11,62.11,0,0,0,788.51,250a43.26,43.26,0,0,0,8.73.66c2.77-.07,5.52-.46,8.29-.6a16.65,16.65,0,0,1,8.28,1.34,13.71,13.71,0,0,1,5.64,5.4,16.83,16.83,0,0,1,1.36,13.27,21.43,21.43,0,0,1-11,13.34,22.2,22.2,0,0,1-10.71,2.07c-.6,0-1.62.21-1.9.83s.24.95.82,1a25.28,25.28,0,0,0,22.29-10.46,21.7,21.7,0,0,0,4-15.07,16,16,0,0,0-7.13-11.23c-5-3.09-10.85-2.32-16.36-1.85A43,43,0,0,1,783,246.4a118.87,118.87,0,0,1-14.69-6.65,77,77,0,0,1-10.65-6.39,52.81,52.81,0,0,1-20.35-31c-.26-1.13-2.44-.31-2.81.31a18.07,18.07,0,0,0-2.88,10.11,29.94,29.94,0,0,0,2,9.57c.46,1.2,1.63,3.37-.26,3.9a4.34,4.34,0,0,1-3.93-1.22c-2.06-1.83-3.26-4.53-4.16-7.08a27.43,27.43,0,0,1-1.61-10.7c.08-1.28-2.47-.73-2.81.08A124.44,124.44,0,0,0,714,228.45c-1.27,5.55-2.47,11-5.1,16.08a50.56,50.56,0,0,1-7.63,10.89c-1.18,1.3,1.63,1.43,2.36.62Z"/><path class="cls-3" d="M799,270.17a12.63,12.63,0,0,0,12.24-8.81,12.19,12.19,0,0,0,.48-1.77c.24-1.24-2.7-.8-2.91.31a11.92,11.92,0,0,1-2,4.69,9.07,9.07,0,0,1-2.9,2.68,7.94,7.94,0,0,1-2.23.87l-.25.05q-.3.06-.6.09l-.54.05c-.07,0-.6,0-.23,0a2.2,2.2,0,0,0-1.91.83c-.32.57.28,1,.83,1Z"/><path class="cls-3" d="M718.13,183.86a17.46,17.46,0,0,0-12,8.31c-.31.54,1,.5,1.21.47a2.27,2.27,0,0,0,1.67-.89c0-.06.09-.15.18-.3l.27-.42c.22-.33.46-.66.71-1a14.71,14.71,0,0,1,2-2.1,13.26,13.26,0,0,1,2.88-1.86c.27-.12.55-.24.83-.34s.42-.16.56-.2l.73-.2.41-.1c.33-.08-.22,0,.12,0,.49-.1,1.52-.31,1.67-.9s-.93-.53-1.21-.47Z"/><path class="cls-3" d="M702.45,199.26c-4.9,15.06-8.88,30.64-10.81,46.37-.72,5.84-1,11.71-1.62,17.56A239.72,239.72,0,0,1,686,288.45a361.67,361.67,0,0,1-12.26,43.81c-1.57,4.55-3.26,9-5,13.52-1.58,4.05-3.21,8.08-4.72,12.16a39.54,39.54,0,0,0-2.54,8.36c-.16,1.22,0,2.61,1.45,2.69s2.54-.86,3.53-1.66a89.77,89.77,0,0,0,7.25-6.95q4.51-4.63,8.82-9.46c1.08-1.21,2.14-2.44,3.2-3.67l-2.63-.1a106,106,0,0,0-.46,22.31A27,27,0,0,0,688,383.52a34.46,34.46,0,0,0,9,8c.85.54,3.51-.69,2.29-1.46a30,30,0,0,1-11.63-12.76c-2.57-5.75-2.43-12.16-2.43-18.33a99.52,99.52,0,0,1,.75-12.2c.14-1.2-2.21-.59-2.63-.1-5.12,6-10.47,11.76-16.13,17.22-.91.88-1.83,1.75-2.79,2.56-.47.4-.86.55-1.32,1a4.34,4.34,0,0,1,1.36-.07,7.36,7.36,0,0,1-.09-1.61,42,42,0,0,1,2.52-8.18c1.45-3.92,3-7.81,4.55-11.71,1.72-4.41,3.4-8.83,5-13.29a367.57,367.57,0,0,0,11.85-41.54,254,254,0,0,0,4.38-25.26c.67-5.75,1-11.54,1.57-17.3,1.59-15.44,5.31-30.74,9.89-45.54.42-1.35.85-2.69,1.28-4,.35-1.06-2.57-.69-2.9.33Z"/><path class="cls-3" d="M717.77,388.57a23.8,23.8,0,0,1-16.08-11.77A48.65,48.65,0,0,1,696,358a49.34,49.34,0,0,1,.21-10.66c.1-.79-2.77-.26-2.86.48a47.76,47.76,0,0,0,1.87,21.14c2,5.91,4.5,11.71,9.42,15.77a25,25,0,0,0,10.79,5.05,3.19,3.19,0,0,0,2-.35c.23-.13,1-.68.33-.82Z"/><path class="cls-3" d="M733.21,390.49a26.59,26.59,0,0,1-17.49-13.28,31.84,31.84,0,0,1-3.65-13.08c-.05-.87-3-.3-2.9.78a31.79,31.79,0,0,0,4.14,14A28,28,0,0,0,731.42,392a2.51,2.51,0,0,0,2.05-.55c.44-.41.34-.83-.26-1Z"/><path class="cls-3" d="M707.47,292.4a98.86,98.86,0,0,1-5.9,39.08c-.59,1.61,2.32,1.69,2.79.4a100.39,100.39,0,0,0,6-39.67c-.08-1.58-3-1.19-2.94.19Z"/><path class="cls-3" d="M727.18,182.4a22.72,22.72,0,0,1,7-13.09,22,22,0,0,1,5.24-3.54,20.46,20.46,0,0,1,3.58-1.36c.42-.12,1.42-.51,1.26-1.11s-1.25-.44-1.64-.33c-9.33,2.63-16.71,10.11-18.33,19.8-.19,1.1,2.73.61,2.89-.37Z"/><path class="cls-3" d="M752.3,161.49a117.89,117.89,0,0,1,28.17,2.38A128.24,128.24,0,0,1,803,170.6c7.85,3.24,15.08,8.27,19.48,15.71a41.31,41.31,0,0,1,4,10.07c1.35,4.88,2.45,9.83,3.47,14.79a207.65,207.65,0,0,1,3.38,22.46c.46,5,.66,10,1.22,15,1.38,12.34,7,23.32,12.71,34.17q3.63,6.85,7.54,13.55c2.35,4,5,7.93,6.94,12.16,4.07,8.77,3.47,18.46-.6,27.11a46,46,0,0,1-2.68,4.86c-.64,1,2.22.68,2.67,0,4.73-7.52,7.52-16.38,5.91-25.3a38.17,38.17,0,0,0-5.15-12.53c-2.65-4.49-5.35-9-7.89-13.5a248.72,248.72,0,0,1-11.87-23.58,61.61,61.61,0,0,1-4.29-14.69c-.73-4.72-.94-9.5-1.3-14.26a205.13,205.13,0,0,0-2.66-20.81c-.9-5-2-9.91-3.14-14.81A71.17,71.17,0,0,0,827,188.66c-3.28-7.41-9.38-13.12-16.45-16.92-7.28-3.91-15.49-6.16-23.46-8.19A119.45,119.45,0,0,0,761.5,160c-2.68-.08-5.35-.07-8,0-.56,0-1.63.2-1.92.76s.25.73.75.72Z"/><path class="cls-3" d="M837.82,367.55a17.55,17.55,0,0,0,13.25-5,19.53,19.53,0,0,0,4.45-7c.22-.61-.93-.61-1.24-.57-.58.07-1.43.34-1.66.95a17.83,17.83,0,0,1-3.52,5.85A12.64,12.64,0,0,1,839,366a2.34,2.34,0,0,0-1.92.78c-.35.58.3.78.77.8Z"/><path class="cls-3" d="M817.5,388.58a29.09,29.09,0,0,1,.6-11.53,28.33,28.33,0,0,1,5-9.78,89.78,89.78,0,0,0,5.8-7.92,41.82,41.82,0,0,0,3.62-7.76,54.56,54.56,0,0,0,2.69-12.84c0-.39-2.82-.1-2.9.78a48.26,48.26,0,0,1-6,19.88c-3.46,5.93-8.77,10.52-10.83,17.25a29.75,29.75,0,0,0-.89,12.69c.08.58,3,0,2.9-.77Z"/><path class="cls-3" d="M829.27,297c4.12,6.14,8.44,12.16,12.43,18.39A24.38,24.38,0,0,1,845,333.32c-.23,1.27,2.71.83,2.91-.3a25.37,25.37,0,0,0-3.26-18.36c-4-6.41-8.5-12.57-12.72-18.85-.62-.93-3.42.09-2.67,1.2Z"/><path class="cls-3" d="M844.39,243.85a145.32,145.32,0,0,0,14.28,22.49c2.48,3.2,5.12,6.28,7.86,9.26s5.56,5.81,8.14,8.9c9.82,11.79,12.7,28.81,6.8,43.05a46.63,46.63,0,0,1-10.82,15.7.75.75,0,0,0,.34,1.29,2.09,2.09,0,0,0,2-.55c9-8.67,14.86-20.88,14.41-33.54a44.81,44.81,0,0,0-7.7-24,83.2,83.2,0,0,0-7.59-8.87c-3.09-3.28-6.13-6.6-9-10.09a144.84,144.84,0,0,1-16.14-24.84c-.54-1.05-3.33-.05-2.66,1.24Z"/><path class="cls-3" d="M886,334.18a15.84,15.84,0,0,1-2.61,4.63,13.4,13.4,0,0,1-2.78,2.54,12.54,12.54,0,0,1-1.69,1q-.42.19-.84.36l-.4.16c.32-.12-.19.06-.25.08-.5.16-1.39.59-1.21,1.27s1.2.64,1.68.49A17.08,17.08,0,0,0,888.7,334.4c.54-1.47-2.34-1.28-2.74-.22Z"/><path class="cls-3" d="M838.43,230.12a14.58,14.58,0,0,0,2.25,6.5,1.19,1.19,0,0,0,.81.38,2.12,2.12,0,0,0,1.14-.21c.53-.27,1.1-.81.71-1.42a12.17,12.17,0,0,1-1.39-3,14.69,14.69,0,0,1-.63-3.07c0-.26-.39-.47-.6-.54a1.93,1.93,0,0,0-1.09,0c-.63.18-1.27.6-1.2,1.32Z"/><path class="cls-3" d="M797.62,306.13a76.82,76.82,0,0,1-.8,19.57A83.46,83.46,0,0,1,792,341.53,37.8,37.8,0,0,0,789.21,355a45.89,45.89,0,0,0,3.83,18.1A49,49,0,0,0,802.93,388c.5.52,3.15-.54,2.73-1a47.93,47.93,0,0,1-13.53-31.16,35.85,35.85,0,0,1,2.47-14,94.9,94.9,0,0,0,4.8-15.09,77.13,77.13,0,0,0,1.12-21.34c0-.5-3,0-2.9.78Z"/><path class="cls-3" d="M750,333.23a108.2,108.2,0,0,1-1.26,43c-.24,1,2.67.58,2.9-.38a109.26,109.26,0,0,0,1.25-43.45c-.16-.94-3.07-.26-2.89.78Z"/><path class="cls-3" d="M747.22,384.6c.19,3.87,1.75,7.7,5.45,9.44s8.63.9,12.38-.41c8-2.78,14.53-8.93,20-15.17q3-3.45,5.71-7.16c1.07-1.5-1.65-1.95-2.43-.87a85.73,85.73,0,0,1-11.36,13c-5.23,4.81-12.16,9.88-19.68,9.39-4.55-.29-6.94-4.22-7.15-8.44-.07-1.53-3-1.08-2.93.22Z"/><path class="cls-3" d="M881.37,363.15a233.25,233.25,0,0,1,39.34,49.42c4.43,7.5,8.58,15.38,11,23.8a35.49,35.49,0,0,1,1.47,12.29c-.76,10-5.26,19.17-11.58,26.79-1.18,1.43,1.56,2,2.45.94,8.78-10.57,14.32-24.54,11.2-38.28-1.8-7.92-5.45-15.41-9.35-22.48a215.94,215.94,0,0,0-16-24.53,243.25,243.25,0,0,0-26.32-29.69c-1-1-3.46.55-2.22,1.74Z"/><path class="cls-3" d="M590.79,545.72a243,243,0,0,1,22.38-27.81q6.12-6.56,12.81-12.54c3.41-3.05,6.95-6,10.39-9a155.28,155.28,0,0,0,23.28-25.65c7.62-10.5,14.12-21.89,20.24-33.31a314,314,0,0,0,16.84-37c.56-1.45-2.33-1.26-2.73-.21a314,314,0,0,1-14.44,32.42,319.22,319.22,0,0,1-19.89,34A152.74,152.74,0,0,1,636,493.91c-7.49,6.75-15.31,13-22.35,20.29a243.43,243.43,0,0,0-25.62,31.32c-.41.59.36,1,.84,1.05a2.12,2.12,0,0,0,1.9-.85Z"/><path class="cls-3" d="M803.15,446.29a96.9,96.9,0,0,1,57,4.73,103,103,0,0,1,10.32,4.83c.71.38,3.39-.71,2.34-1.28a100.53,100.53,0,0,0-54.37-11.78,105.57,105.57,0,0,0-15.63,2.3c-.36.08-1.43.46-1.29,1s1.29.28,1.61.21Z"/><path class="cls-3" d="M788.52,458.88a33.94,33.94,0,0,1,30.06-.44c1.22.57,3.33-1.19,1.66-2a37.53,37.53,0,0,0-33,.68c-1.76.9-.19,2.5,1.29,1.74Z"/><path class="cls-3" d="M839.7,470.47a23.15,23.15,0,0,1,8.88,21.36c-.12.86,2.76.33,2.87-.46a23.65,23.65,0,0,0-9-21.94c-.69-.53-3.28.61-2.71,1Z"/><path class="cls-3" d="M793,463.09a57.7,57.7,0,0,1,36,14.81,59.65,59.65,0,0,1,5.36,5.54c.78.92,3.55-.19,2.67-1.23a60,60,0,0,0-33-19.78,61.85,61.85,0,0,0-10-1.29,2,2,0,0,0-1.89.85c-.28.62.24,1.07.85,1.1Z"/><path class="cls-3" d="M778.11,469.36A49.43,49.43,0,0,0,769,481.28c-.81,1.56-1.43,3.2-2.25,4.76a29.34,29.34,0,0,1-4,5.57,65.72,65.72,0,0,1-9.35,8.68c-1.5,1.15-3.08,2.17-4.54,3.37-1.3,1.07-3.11,2.89-1.77,4.62s4.38,2.28,6.35,2.36a14.81,14.81,0,0,0,7.29-1.69c1.78-.89.17-2.09-1.2-1.4a9.94,9.94,0,0,1-5.9,1.18c-1.15-.17-4.16-.78-4.09-2.36,0-.86,1.12-1.62,1.72-2.1,1.05-.84,2.18-1.58,3.26-2.38.79-.58,1.55-1.19,2.31-1.81a64.56,64.56,0,0,0,9.09-8.79,30.08,30.08,0,0,0,3.52-5.08c.68-1.29,1.21-2.66,1.85-4A46.1,46.1,0,0,1,780.47,470a.66.66,0,0,0-.31-1.18,2.21,2.21,0,0,0-2,.55Z"/><path class="cls-3" d="M772.1,507.9A93.57,93.57,0,0,1,787.81,477c.4-.53-.36-.68-.75-.69a2.67,2.67,0,0,0-1.92.75,95,95,0,0,0-15.92,31.26c-.25.84,2.62.44,2.88-.43Z"/><path class="cls-3" d="M779.38,509.8a10,10,0,0,0,3.48-4.48c.18-.45-1-.25-1.14-.21a4.73,4.73,0,0,0-1.11.33c-.18.09-.52.22-.6.42a9.32,9.32,0,0,1-1.5,2.59l-.24.28c.05-.05,0,0,0,0l-.15.15a6.25,6.25,0,0,1-.45.44,10.22,10.22,0,0,1-.88.72c-.12.08-.2.24-.06.34a1.3,1.3,0,0,0,.73.06,4.1,4.1,0,0,0,1.94-.67Z"/><path class="cls-3" d="M787.34,508.54a33.69,33.69,0,0,0,13.89-13.11c.38-.64-.33-1.22-.9-1.3a1.86,1.86,0,0,0-1.88.91A30.36,30.36,0,0,1,786,506.71c-.55.28-1.1,1-.67,1.57a1.64,1.64,0,0,0,2,.26Z"/><path class="cls-3" d="M794.43,513.22A111.21,111.21,0,0,0,812,500.35l-1.59.62a17.5,17.5,0,0,1,5.5-.09c1.63.24,3.17.84,4.78,1.13a11.28,11.28,0,0,0,9.08-2.71c.5-.42-.44-.42-.66-.4a3.63,3.63,0,0,0-1.94.67,4.68,4.68,0,0,1-4.25,1.35c-1.46-.29-2.86-.82-4.33-1.06a20.5,20.5,0,0,0-3.91-.25,12.82,12.82,0,0,0-4.81.73,8.92,8.92,0,0,0-1.86,1.51l-2.17,1.84c-1.5,1.23-3,2.42-4.58,3.57-2.9,2.14-5.92,4.12-9,6-.5.29-.34.49.15.55a3.74,3.74,0,0,0,2-.55Z"/><path class="cls-3" d="M799.49,558.71A267.51,267.51,0,0,1,843,530.32q5.81-3,11.74-5.75c.39-.18.84-.52.34-.81s-1.59.15-2,.36a271.63,271.63,0,0,0-44.24,25.67q-5.93,4.23-11.6,8.77c-.45.36-.35.59.19.7a3.2,3.2,0,0,0,2-.55Z"/><path class="cls-3" d="M691.91,547.19a173.15,173.15,0,0,1-1.11-48.7c0-.26-2.81-.05-2.9.77A173.21,173.21,0,0,0,689,548c.08.5,3-.13,2.89-.78Z"/><path class="cls-3" d="M692.74,478.76a217,217,0,0,0,3.65-23.66c.05-.46-2.8-.14-2.89.78a216.42,216.42,0,0,1-3.63,23.36c-.15.74,2.71.29,2.87-.48Z"/><path class="cls-3" d="M649.18,546.06a34,34,0,0,1,1.33,38.12c-.64,1,2.22.64,2.66-.06a34.57,34.57,0,0,0,2-33.8,36.65,36.65,0,0,0-3.25-5.33c-.5-.67-3.3.28-2.71,1.07Z"/><path class="cls-3" d="M635.68,592.51a56,56,0,0,0,30-2.07c.49-.18,1.39-.58,1.21-1.26s-1.21-.66-1.68-.49a51.82,51.82,0,0,1-27.83,2,2.22,2.22,0,0,0-2,.55c-.4.44-.34,1.1.33,1.24Z"/><path class="cls-3" d="M605.2,539.51a40.1,40.1,0,0,1,33.92,15.56c.67.87,3.46-.17,2.68-1.18a42.52,42.52,0,0,0-36.25-16.16c-1.5.1-2.35,1.91-.35,1.78Z"/><path class="cls-3" d="M626.21,561.49a23.74,23.74,0,0,1,11.86,12.23c.27.63,3.09-.33,2.9-.78a24.11,24.11,0,0,0-12-12.4,2.8,2.8,0,0,0-1.86.2c-.11,0-1.29.56-.88.75Z"/><path class="cls-3" d="M573.8,558.78a8,8,0,0,1,7-5.12,23.89,23.89,0,0,1,6.93.84,99.08,99.08,0,0,1,14.76,5c1.27.53,2.54,1.07,3.79,1.64a2.3,2.3,0,0,0,2.05-.26c.38-.24.89-.86.25-1.16-3.79-1.73-7.68-3.26-11.62-4.62-5.34-1.83-11.44-3.92-17.17-2.94a11.57,11.57,0,0,0-8.89,7c-.27.62,1,.67,1.25.64a2,2,0,0,0,1.65-1Z"/><path class="cls-3" d="M603.37,574.52a89.51,89.51,0,0,0-6.08,21.84,73.27,73.27,0,0,0-1,13.94c.08,1.56.11,4.13,1.56,5.14,2.08,1.46,5-.86,6.43-2.27a40.47,40.47,0,0,0,6.34-8.9,52.37,52.37,0,0,0,2.63-5.44,25.93,25.93,0,0,1,2.25-4.69,11.12,11.12,0,0,1,4.31-3.77c1.87-.89,3.79-1.61,5.58-2.68a35.72,35.72,0,0,0,9.86-8.92c.41-.54-.36-.71-.75-.71a2.63,2.63,0,0,0-1.92.75,32.91,32.91,0,0,1-8.47,7.92c-2.74,1.7-6,2.51-8.53,4.54s-3.89,4.81-5.14,7.81a53.6,53.6,0,0,1-5.36,9.84,31.91,31.91,0,0,1-3.16,4,13.76,13.76,0,0,1-1.39,1.25c-.75.57,0,0,0,.2,0-.1-.42-.38-.51-.51a3.89,3.89,0,0,1-.41-1,13.52,13.52,0,0,1-.44-3,68.54,68.54,0,0,1,.92-13.49,89.35,89.35,0,0,1,6.13-22.17c.31-.76-2.52-.45-2.89.42Z"/><path class="cls-3" d="M519.21,645.65a308.64,308.64,0,0,1,19.59-47.23q5.87-11.35,12.65-22.2,3-4.86,6.27-9.61c.18-.26.41-.8.69-1s.84.17,1.24.35l3.3,1.41c2.17.92,4.36,1.82,6.55,2.7q13.92,5.55,28.27,9.88c.94.29,3.4-1.1,1.77-1.59q-13.59-4.11-26.81-9.34c-2.28-.91-4.55-1.83-6.81-2.78l-3.31-1.42a9.2,9.2,0,0,0-2.78-1,4.87,4.87,0,0,0-4.48,2.15c-1.13,1.62-2.21,3.27-3.28,4.91a309.86,309.86,0,0,0-25.69,48q-5.65,13.26-10.06,27c-.33,1,2.58.64,2.89-.35Z"/><path class="cls-3" d="M526.48,679a213.48,213.48,0,0,1,40.75,11.54c1.79.69,3.57,1.39,5.34,2.12,1.54.62,3,1.4,4.72,1.3a6.25,6.25,0,0,0,3.92-1.7c1.22-1.2,1.54-2.84,2-4.42q3.71-12.24,7.45-24.46,4.23-13.85,8.51-27.67c.38-1.25-2.57-.91-2.93.26Q589,659.31,582,682.68c-.52,1.73-1.05,3.46-1.57,5.19-.42,1.37-.69,3.68-2.4,4.07a3.23,3.23,0,0,1-1.92-.39l-2.66-1.09c-1.61-.65-3.22-1.29-4.85-1.91-5.41-2.07-10.87-4-16.4-5.73A196.14,196.14,0,0,0,527.52,677c-1.34-.23-3,1.64-1,2Z"/><path class="cls-3" d="M603.86,615.06a58.29,58.29,0,0,0-5,12.85c-.18.68.85.87,1.3.83a1.76,1.76,0,0,0,1.62-1.1,55.9,55.9,0,0,1,4.81-12.35c.33-.62-.3-1-.85-1.09a2,2,0,0,0-1.9.86Z"/><path class="cls-3" d="M587.16,687.66c2,.36,3.83.81,5.6-.4,1.44-1,1.71-2.76,2.17-4.32q1.71-5.82,3.19-11.69c1.7-6.78,3-13.61,4.31-20.46a154.76,154.76,0,0,1,11.51-35.54c1.85-4,3.89-7.83,6.09-11.61.66-1.12,1.33-2.24,2-3.34a28.73,28.73,0,0,0,2.09-3.38c1-2.3-.74-4.26-1.88-6.14-.59-.95-3.39.05-2.68,1.2a25.38,25.38,0,0,1,1.71,2.81,2.89,2.89,0,0,1-.42,2.88c-1.21,1.91-2.42,3.82-3.56,5.78q-2.85,4.88-5.3,10c-1.79,3.69-3.37,7.46-4.82,11.3a179.16,179.16,0,0,0-6.69,21.87c-1.28,5.39-2.06,10.88-3.25,16.29Q595.7,670,593.79,677c-.51,1.87-1,3.75-1.58,5.62-.25.84-.49,1.68-.75,2.52-.11.34-.23,1-.62,1.11s-1.45-.21-2-.3a2.27,2.27,0,0,0-2,.55c-.39.43-.34,1.08.33,1.2Z"/><path class="cls-3" d="M593.18,688.72c2.91.77,7.5,2.73,9.43-.85a16.91,16.91,0,0,0,1.1-4.29c.42-1.85.81-3.69,1.2-5.54,1.25-5.95,2.28-11.92,3.34-17.9s2.43-11.74,4-17.51a88.11,88.11,0,0,1,7-17.3,115,115,0,0,0,8.52-21.49c.36-1.24-2.59-.88-2.92.28a109.76,109.76,0,0,1-7.17,18.68c-2.56,5.16-5.22,10.17-7.06,15.66-3.41,10.22-5,20.87-7,31.42-.77,4.09-1.61,8.17-2.49,12.24-.36,1.65-.65,3.35-1.12,5-.35,1.21-.86,1-1.9.68l-3.27-.86a2.15,2.15,0,0,0-2,.54.73.73,0,0,0,.33,1.27Z"/><path class="cls-3" d="M546.62,581.08a290.19,290.19,0,0,1,50.76,17.07c.75.34,3.41-.81,2.33-1.29a292.06,292.06,0,0,0-51.28-17.19c-.8-.19-3.37,1.05-1.81,1.41Z"/><path class="cls-3" d="M557,601a73,73,0,0,1,27.56,6.47,2.64,2.64,0,0,0,1.87-.14c.12,0,1.33-.65.85-.86a74.86,74.86,0,0,0-28.41-6.69,3.28,3.28,0,0,0-2,.55c-.38.32-.46.65.18.67Z"/><path class="cls-3" d="M545.43,620.87A55.11,55.11,0,0,1,586,635c.63.56,3.28-.54,2.72-1a57.06,57.06,0,0,0-42-14.42c-.54,0-1.63.2-1.93.73s.26.63.72.59Z"/><path class="cls-3" d="M537.61,633.67a82.19,82.19,0,0,0,13.89,1.66,32.57,32.57,0,0,1,12.71,2.85,2.17,2.17,0,0,0,2.06-.23c.39-.27.87-1,.22-1.28a33.9,33.9,0,0,0-12.86-3.13,87.93,87.93,0,0,1-14.29-1.6,2.29,2.29,0,0,0-2.05.55c-.4.44-.33,1,.32,1.18Z"/><path class="cls-3" d="M531.42,650.89A148.82,148.82,0,0,1,575,665.79a2.51,2.51,0,0,0,1.88-.13c.14,0,1.33-.63.85-.89a150.82,150.82,0,0,0-44-15.06,3.41,3.41,0,0,0-2,.35c-.22.12-1,.71-.33.83Z"/><path class="cls-3" d="M721.91,238.45a6,6,0,0,0-5.65,1.33,5.6,5.6,0,0,0-1.7,4.31.81.81,0,0,0,.35.71,1.59,1.59,0,0,0,1,.21,2.09,2.09,0,0,0,1.09-.4c.22-.17.53-.45.52-.75a5.55,5.55,0,0,1,0-1,4.35,4.35,0,0,1,.1-.52,1.6,1.6,0,0,1,0-.21c.07-.25-.08.23,0,0a5.69,5.69,0,0,1,.38-.83.87.87,0,0,0,.11-.18c-.11.16-.12.19,0,.08l.06-.08a3.11,3.11,0,0,1,.29-.33l.15-.15c-.29.29-.13.12,0,.06s.25-.18.38-.27c-.35.25-.19.11-.08.05l.21-.1c.28-.13-.34.1,0,0a1.11,1.11,0,0,1,.3-.08l-.22,0,.17,0,.24,0h-.06a1.27,1.27,0,0,1,.28,0l.37,0c.26.05-.1,0-.13,0a.53.53,0,0,1,.16,0,2.05,2.05,0,0,0,1.1,0,2,2,0,0,0,.95-.56.89.89,0,0,0,.24-.8.9.9,0,0,0-.61-.56Z"/><path class="cls-3" d="M743.78,233.48a4.43,4.43,0,0,1,.78-1.12,3.71,3.71,0,0,1,.76-.69l.3-.2.17-.09c.22-.12-.06,0,.09,0l.21-.08c-.11,0-.12,0,0,0s.33-.07.12,0c0,0,.44-.06.19,0a3.39,3.39,0,0,1,.54,0,4.62,4.62,0,0,1,1.11.2,7,7,0,0,1,.91.33c.1,0-.1-.05,0,0l.14.07.18.1a2.38,2.38,0,0,0,1.88-.11c.15-.06,1.32-.63.84-.91a8.33,8.33,0,0,0-11.1,3.08c-.27.5,1,.4,1.18.37.54-.1,1.4-.3,1.69-.84Z"/><path class="cls-3" d="M731.66,264.4c-.06,4.62-2.32,9.82-6.81,11.7-4.29,1.8-8.9-.84-11.29-4.42a14.78,14.78,0,0,1-.89-14.34c2-4.12,6.2-7,10.85-5.57,5.31,1.7,8.07,7.37,8.14,12.63,0,.86,2.91.32,2.89-.77-.06-5.61-3.17-11.36-8.7-13.22a13.26,13.26,0,0,0-14.61,4.83,15.55,15.55,0,0,0-.92,16.69,12.31,12.31,0,0,0,13.81,5.92c6.49-1.63,10.35-7.77,10.42-14.22C734.56,262.79,731.67,263.31,731.66,264.4Z"/><path class="cls-3" d="M763.69,256.18c-.05,4.63-2.16,9.54-6.59,11.53-4.2,1.9-8.81-.22-11.32-3.79a14.31,14.31,0,0,1-1.11-14.14c1.93-4,6.11-6.93,10.67-5.78,5.34,1.34,8.29,7,8.35,12.18,0,1.57,3,1.17,2.94-.19-.06-5.7-3-11.43-8.47-13.63a12.73,12.73,0,0,0-14.74,4.51,16,16,0,0,0-1.24,16.8,12.6,12.6,0,0,0,13.8,6.67c6.55-1.44,10.58-7.93,10.65-14.35C766.65,254.42,763.71,254.81,763.69,256.18Z"/><path class="cls-3" d="M732.15,259.77a10,10,0,0,1,5.43-2.35,13.12,13.12,0,0,1,4.94.57,3.4,3.4,0,0,0,2-.38c.28-.13,1-.51.37-.69A17.15,17.15,0,0,0,729.54,260c-.51.41.45.43.66.41a3.88,3.88,0,0,0,1.95-.68Z"/><path class="cls-3" d="M763.2,252.43q9.66-4.05,19.38-8c.43-.17,1.15-.7.76-1.22s-1.47-.25-1.93-.06q-9.72,3.93-19.38,8c-.43.18-1.16.69-.76,1.22s1.46.25,1.93.06Z"/><path class="cls-3" d="M712.82,263l-6.2,2a2,2,0,0,0-.94.59,1,1,0,0,0-.22.87,1.37,1.37,0,0,0,1.74.67l6.19-2a1.91,1.91,0,0,0,.94-.59,1,1,0,0,0,.22-.86,1.37,1.37,0,0,0-1.73-.68Z"/><path class="cls-3" d="M507.46,700.58c-.22-7.85-.45-15.74-.25-23.59A48.88,48.88,0,0,1,510,661.37a23.08,23.08,0,0,1,1.74-3.9,6.83,6.83,0,0,1,1.06-1.45c.24-.24.83-.52.09-.32s-.09.17.28.38c2,1.18,3.12,3.93,4,6,2.31,5.51,2.38,11.74,2.52,17.63a24.75,24.75,0,0,0,7,18c.47.55,3.18-.46,2.73-1a24.58,24.58,0,0,1-6.79-17.52c-.16-6.26-.22-12.79-2.83-18.6-.9-2-2.23-5-4.49-5.79-2.54-.88-5.05,1-6.3,3.07a32.41,32.41,0,0,0-3.06,7.92,41.69,41.69,0,0,0-1.38,8.06c-.32,4.29-.25,8.61-.21,12.91q.06,7.31.27,14.61c0,.51,2.92.06,2.9-.77Z"/><path class="cls-3" d="M553.92,726.05a14.63,14.63,0,0,1,.88-11.31,36.46,36.46,0,0,1,4.38-5.53A65.24,65.24,0,0,0,569,692c.26-.63-.94-.71-1.27-.68a1.9,1.9,0,0,0-1.63,1c-2.54,6.14-5.68,12.27-10.11,17.29a24.54,24.54,0,0,0-4.51,6.18,15.84,15.84,0,0,0-.5,11c.32,1.06,3.21.28,2.9-.78Z"/><path class="cls-3" d="M414.41,691.59a115.23,115.23,0,0,1,60.95,25.76A118.06,118.06,0,0,1,485.62,727c.6.64,3.34-.4,2.71-1.07A116.64,116.64,0,0,0,431.91,693a119.16,119.16,0,0,0-15.68-2.78,2.83,2.83,0,0,0-2.05.55c-.4.36-.4.78.23.85Z"/><path class="cls-3" d="M495.6,715.91a88.6,88.6,0,0,0,4.76,48.14c.24.62,3.09-.3,2.9-.77a88.55,88.55,0,0,1-4.76-48.15c0-.21-2.74-.06-2.9.78Z"/><path class="cls-3" d="M537.05,722.42A80.47,80.47,0,0,1,561.94,752c.52,1.06,3.36.16,2.9-.78a82.16,82.16,0,0,0-25.5-30.3c-.83-.6-3.48.61-2.29,1.48Z"/><path class="cls-3" d="M520.91,727.89a84.2,84.2,0,0,0,24.27,20,2.08,2.08,0,0,0,2.07-.22c.42-.3.83-1,.2-1.34a82.6,82.6,0,0,1-23.87-19.7c-.75-.91-3.53.18-2.67,1.22Z"/><path class="cls-3" d="M563.6,764.07c.39,10.57-1.07,21.37-6,30.84a71,71,0,0,1-6.52,9.86c-3.1,4.11-6.14,8.24-8.9,12.58a160.29,160.29,0,0,0-9.83,18c-.68,1.45,2.24,1.39,2.76.28A162.74,162.74,0,0,1,553,806.24a86.08,86.08,0,0,0,6.83-10,52.91,52.91,0,0,0,4.74-12,70.26,70.26,0,0,0,2-20.43c0-1.46-3-1-2.93.25Z"/><path class="cls-3" d="M493.08,818.35a86.89,86.89,0,0,1,14.28,44.23c0,.46,2.93,0,2.9-.78A86.86,86.86,0,0,0,496,817.58c-.46-.69-3.11.46-2.9.77Z"/><path class="cls-3" d="M523.32,847.78a24.62,24.62,0,0,0-5,7c-.2.43,1,.23,1.14.2a5.38,5.38,0,0,0,1.1-.34c.19-.09.51-.2.61-.4a23.5,23.5,0,0,1,4.77-6.78c.44-.43-.4-.41-.65-.38a4.78,4.78,0,0,0-1.13.27,2.24,2.24,0,0,0-.82.4Z"/><path class="cls-3" d="M261.34,783.41a30,30,0,0,1,13.14,18.15c.26,1,3.16.27,2.9-.78A31.14,31.14,0,0,0,263.64,782c-.82-.52-3.49.68-2.3,1.42Z"/><path class="cls-3" d="M268.35,837.76a128.11,128.11,0,0,0,32,18.65,114.86,114.86,0,0,0,29.19,7,181.58,181.58,0,0,0,35.2.41c7-.56,13.78-1.94,20.7-2.85a74.76,74.76,0,0,1,20.43-.18,65.75,65.75,0,0,1,20,6.35,2.17,2.17,0,0,0,2.06-.23c.4-.28.86-1,.21-1.29a69.78,69.78,0,0,0-35.85-7.13c-7.9.52-15.62,2.34-23.49,3.17a181.64,181.64,0,0,1-31.2.55,120.2,120.2,0,0,1-31.56-6.06,123.88,123.88,0,0,1-35.48-19.92c-.85-.66-3.48.57-2.28,1.52Z"/><path class="cls-3" d="M150.14,919.83q13.8-12.44,28.4-24c7-5.5,14.45-10.63,19.76-17.88,6.36-8.66,8.9-19.36,11.57-29.59q2.38-9.1,3.84-18.42c.81-5.14,1.45-10.3,2.29-15.44a168.06,168.06,0,0,1,11.2-38.27c.61-1.44-2.3-1.29-2.75-.23a169.53,169.53,0,0,0-10.58,34.32c-2,10.69-3,21.53-5.41,32.16-1.46,6.42-3.19,12.82-5.15,19.11a56.55,56.55,0,0,1-5.71,13.13c-4.58,7.36-11.3,12.42-18,17.68q-16.37,12.79-31.82,26.67a.72.72,0,0,0,.34,1.26,2.17,2.17,0,0,0,2-.55Z"/><path class="cls-3" d="M281.82,887.88a183.33,183.33,0,0,1,25.42,23.45c3.52,3.95,6.83,8.09,10.25,12.12a181.15,181.15,0,0,0,12.67,13.47q6.69,6.42,14,12.17c1.09.85,3.57-.68,2.22-1.75A180.72,180.72,0,0,1,321,923.11c-6.78-7.88-13.26-15.91-20.77-23.13A188.54,188.54,0,0,0,284,886.14c-1.1-.84-3.58.7-2.21,1.74Z"/><path class="cls-3" d="M293.27,950.31A114.94,114.94,0,0,0,334.68,966c3.45.59,6.93,1,10.42,1.29a2,2,0,0,0,1.9-.86c.28-.63-.26-1-.85-1.08a112,112,0,0,1-40.95-11.22c-3.31-1.64-6.53-3.45-9.67-5.4-1-.6-3.58.76-2.26,1.58Z"/><path class="cls-3" d="M194.75,918.13a163.6,163.6,0,0,0,52.67,23.06q6.53,1.56,13.15,2.6c1.34.21,3-1.67,1-2a161.88,161.88,0,0,1-51.4-17.31c-4.53-2.45-8.93-5.12-13.21-8-1-.66-3.57.71-2.25,1.59Z"/><path class="cls-3" d="M167.26,988.72a128,128,0,0,0,60.29,8.53,134.49,134.49,0,0,0,13.68-2.11c.33-.07,1.69-.33,1.7-.8s-.84-.37-1.17-.31a124.68,124.68,0,0,1-58.21-1.76,128.6,128.6,0,0,1-13.92-4.69,3,3,0,0,0-2,.36c-.32.16-.93.54-.34.78Z"/><path class="cls-3" d="M166,954.84a120.34,120.34,0,0,0,36.85,31.75c.78.43,3.46-.72,2.32-1.36a119.32,119.32,0,0,1-36.48-31.51c-.57-.73-3.36.25-2.69,1.12Z"/><path class="cls-3" d="M147.49,940.77a53.38,53.38,0,0,0,7.66,27.43c.52.86,3.27-.16,2.89-.78A53.44,53.44,0,0,1,150.39,940c0-.73-2.9-.24-2.9.78Z"/><path class="cls-3" d="M139.66,956.44a88,88,0,0,1,5.05,14.18,30.09,30.09,0,0,0,6.43,12.13c.68.76,3.45-.29,2.69-1.14a29.48,29.48,0,0,1-6.31-12.11,85.21,85.21,0,0,0-5-13.84c-.47-1-3.31-.11-2.89.78Z"/><path class="cls-3" d="M88.9,995.67a186,186,0,0,1,18.21,4.17c2.26.66,4.55,1.72,6.91,1.95,4.9.47,10.14-1.1,14.57-3a36.32,36.32,0,0,0,7.74-4.51,25.6,25.6,0,0,0,2.75-2.45,14.58,14.58,0,0,1,2.48-2.36c3-1.94,6.31.18,9.36.94a34.5,34.5,0,0,0,10.38.83c1.59-.1,2.28-2.12.29-2a29.75,29.75,0,0,1-9.26-.77c-2.77-.72-5.39-2.12-8.32-1.82a10.71,10.71,0,0,0-6.79,3.82,25.49,25.49,0,0,1-6.1,4.83c-4.53,2.65-10.18,4.79-15.51,4.56a6.13,6.13,0,0,1-2.23-.41c-1.28-.39-2.53-.83-3.81-1.21a183.15,183.15,0,0,0-19.64-4.52c-1.35-.25-3,1.63-1,2Z"/><path class="cls-3" d="M141.72,926.32A57.75,57.75,0,0,0,112.3,926a37.57,37.57,0,0,0-6.21,2,8.72,8.72,0,0,0-3.75,2.59c-.71,1.06-.22,1.87.68,2.6a43.46,43.46,0,0,0,5.6,3.56,34.23,34.23,0,0,0,15.71,4.61,3,3,0,0,0,2-.55c.36-.34.45-.78-.22-.81a32,32,0,0,1-12.84-3.23,62.52,62.52,0,0,1-5.43-3.17c-.77-.49-2.89-1.44-3-2.52s1.31-1.68,2-2a24.81,24.81,0,0,1,5-1.75,53.7,53.7,0,0,1,13.4-1.77,52.06,52.06,0,0,1,14.1,2,2.85,2.85,0,0,0,2-.33c.28-.15,1-.74.31-.92Z"/><path class="cls-3" d="M63.05,947.39c-1.46,2.27-2.16,5-.72,7.47s4.81,3.83,7.46,4.84a23.3,23.3,0,0,0,5.65,1.36,2.1,2.1,0,0,0,1.9-.83c.35-.62-.3-.91-.82-1A20.22,20.22,0,0,1,71,957.79a18.39,18.39,0,0,1-4.47-2.36,5.29,5.29,0,0,1-2.1-3.39,6.89,6.89,0,0,1,1.3-4.5c.38-.58-.32-.94-.81-1a2.21,2.21,0,0,0-1.91.82Z"/><path class="cls-3" d="M70.56,967.59a6.2,6.2,0,0,0,.42,4.26,6.87,6.87,0,0,0,2.62,2.51c2.41,1.52,4.79,3,7.07,4.74.85.64,3.49-.59,2.28-1.5-2.14-1.6-4.35-3.07-6.63-4.46a6.79,6.79,0,0,1-2.45-2.09,5.18,5.18,0,0,1-.4-3.77c.27-1.21-2.67-.78-2.91.31Z"/><path class="cls-3" d="M339.7,567.84a111.94,111.94,0,0,0,3.72,18.84C345,592,347.1,597,349,602.2a203.33,203.33,0,0,1,6.15,19.41,39.08,39.08,0,0,1,1.25,6.52,26.76,26.76,0,0,1-.71,8.07c-3.71,16.46-19.1,29.83-35.3,33.21-12.51,2.61-25.73-.86-35.87-8.47a2,2,0,0,0-1.91,0c-.26.11-1.31.74-.78,1.14A48.5,48.5,0,0,0,314,671.78a51,51,0,0,0,29-11.92,48.74,48.74,0,0,0,13.3-17.29c2.27-5.09,3.59-10.91,2.82-16.49a54.9,54.9,0,0,0-1.72-7.49q-1.54-5.39-3.27-10.7c-1.87-5.74-4.27-11.28-6.27-17a107.56,107.56,0,0,1-4.85-20.09c-.18-1.26-.34-2.51-.48-3.77-.1-.93-3-.3-2.89.78Z"/><path class="cls-3" d="M337.79,662.09a147.85,147.85,0,0,0,14.22,40c.45.85,3.24-.14,2.9-.78a147.85,147.85,0,0,1-14.22-40c-.16-.8-3.07-.1-2.9.78Z"/><path class="cls-3" d="M358.57,714.38c-.07,4.12-1.7,8.09-5.22,10.41-4,2.63-9.14,2.42-13.46.84-1.19-.44-3.4,1.27-1.69,1.9,5.37,2,11.59,1.86,16.55-1.16a14.37,14.37,0,0,0,6.75-12.23c0-1.47-2.91-1-2.93.24Z"/><path class="cls-3" d="M303.52,685.73q5.44,6.78,11.07,13.39c3.2,3.75,6.77,7.32,9.65,11.32,5.23,7.29,6.27,17.68,4.26,26.26a35.12,35.12,0,0,1-8,15.23c-1.21,1.35,1.57,1.75,2.41.8a37,37,0,0,0,9.42-25.64,34.11,34.11,0,0,0-4.64-16.72c-2.17-3.57-5.35-6.61-8.07-9.75q-6.86-7.95-13.43-16.14c-.8-1-3.56.13-2.66,1.25Z"/><path class="cls-3" d="M289.22,712.7a50.6,50.6,0,0,1,13.16,24.1,61,61,0,0,1,.68,22.45,71.45,71.45,0,0,1-1.61,7.8c-.23.86,2.65.44,2.88-.43,3.69-13.94,3.34-29.32-3.29-42.35a51.63,51.63,0,0,0-9.11-12.64c-.62-.64-3.35.41-2.71,1.07Z"/><path class="cls-3" d="M271.86,754.06a27.2,27.2,0,0,1-20.52-17.84c-.37-1.08-3.25-.26-2.89.78a28.66,28.66,0,0,0,21.66,18.73,2.42,2.42,0,0,0,2.05-.55c.4-.42.35-1-.3-1.12Z"/><path class="cls-3" d="M245.18,750.82c-10-2.5-18.74-8-23.65-17.17-4.81-9-5.81-19.73-5.43-29.81a160.11,160.11,0,0,1,4.44-30c2.07-9,4.81-17.76,6.86-26.73a156.75,156.75,0,0,0,3.51-42.82c0-1-2.95-.38-2.9.78a156.28,156.28,0,0,1-2.8,39.09c-1.93,9.48-4.89,18.72-7.13,28.12a170.94,170.94,0,0,0-4.79,29.89c-.57,10.18.06,21,4.39,30.34a33.9,33.9,0,0,0,8.85,11.82,41.87,41.87,0,0,0,16.89,8.11,2.36,2.36,0,0,0,2.05-.55c.43-.44.33-.92-.29-1.07Z"/><path class="cls-3" d="M383.27,685.12a59.77,59.77,0,0,1,.39,10.7,66.53,66.53,0,0,1-1.33,11.07,20,20,0,0,1-12.81,14.59c-.56.21-1.07.93-.68,1.49s1.39.44,2,.22A22.6,22.6,0,0,0,385,707.79a59.23,59.23,0,0,0,1.58-11.73,62.91,62.91,0,0,0-.4-11.72c-.17-1.33-3.08-.61-2.9.78Z"/><path class="cls-3" d="M370.49,626.9a80,80,0,0,1,10.63,29.67c.08.53,3-.07,2.9-.78a80,80,0,0,0-10.64-29.67c-.41-.68-3.11.43-2.89.78Z"/><path class="cls-3" d="M394.31,658.68a105.66,105.66,0,0,1,6,12.41,50,50,0,0,1,3.81,13.6c1,8.95-.87,18.94-8.39,24.69a23.64,23.64,0,0,1-9.3,4.23c-.56.13-1.36.69-1.18,1.37s1.15.71,1.71.58c8.13-1.8,15.46-7.26,18.41-15.21,3.37-9.06,2-19.39-1.42-28.19a107.35,107.35,0,0,0-7-14.75c-.64-1.1-3.4,0-2.65,1.27Z"/><path class="cls-3" d="M357.61,585.29a95.68,95.68,0,0,0,11.09,21.42,114.86,114.86,0,0,0,8.83,10.75c6.7,7.47,13.66,14.69,20.6,21.93,2.35,2.46,4.74,4.9,7,7.48a21.36,21.36,0,0,1,3.11,4.38c4.94,9.81,3.22,21.49-.41,31.41-.38,1,2.53.69,2.91-.33,3.57-9.75,5.12-20.8,1-30.63-1.74-4.11-5-7.29-8-10.49-7.06-7.44-14.22-14.8-21.14-22.37a149.68,149.68,0,0,1-10.27-12.09,91.58,91.58,0,0,1-11.74-22.24c-.4-1.08-3.28-.24-2.9.78Z"/><path class="cls-3" d="M312.39,530.37a48.68,48.68,0,0,1,22.76,10.53A34.71,34.71,0,0,1,343.77,551a69.93,69.93,0,0,1,3.75,9.7c1.87,5.46,3.74,10.91,5.47,16.41.45,1.41,3.34.63,2.9-.78-1.62-5.12-3.36-10.21-5.1-15.29a91,91,0,0,0-4.12-10.85,34.75,34.75,0,0,0-8.1-10,47.77,47.77,0,0,0-9-6.35,52.05,52.05,0,0,0-16.17-5.73c-1.52-.26-2.9,1.91-1,2.25Z"/><path class="cls-3" d="M309.59,550.2a37.61,37.61,0,0,0,26.59,19.07c1.51.27,2.9-1.89,1-2.24a35.33,35.33,0,0,1-24.91-18.15c-.66-1.23-3.4-.09-2.65,1.32Z"/><path class="cls-3" d="M302.89,548.39a28.28,28.28,0,0,1-2.21,14c-2.22,4.74-5.79,8.57-9.69,12-5.52,4.84-11.56,9-16.7,14.27-5.79,6-11.45,13.52-12.09,22.09a42.65,42.65,0,0,0,.4,7,6.84,6.84,0,0,1,0,1.63c0,.21-.41.94-.38,1s.31-.1.31-.13.36.37-.08,0a5.57,5.57,0,0,0-.79-.11c-4.06-.83-8-4.08-10.26-7.38-4.94-7.06-3.45-16.85-.34-24.34.26-.64-.94-.72-1.27-.69a2,2,0,0,0-1.64,1c-2.86,6.91-4.27,15.54-1,22.53A20.33,20.33,0,0,0,257.55,621c2.68,1.13,7.63,1.9,8-2.27.22-2.54-.58-5.09-.48-7.65a23,23,0,0,1,1.35-6.67,39.44,39.44,0,0,1,7.27-12c5-5.89,11.07-10.45,17-15.29,4.64-3.78,9.18-8,12-13.34a29.42,29.42,0,0,0,3.05-16.22c-.08-1-3-.39-2.9.78Z"/><path class="cls-3" d="M255.82,621.87c-7.29,4.88-14.07,13.29-11.91,22.6,1.81,7.82,9.88,12.95,17.71,11.89a18.85,18.85,0,0,0,9.59-4.21c1.49-1.29-.79-2.45-1.95-1.45A13.69,13.69,0,0,1,247.17,645a15.13,15.13,0,0,1,.7-10.87,23.42,23.42,0,0,1,4.39-6.12,30.42,30.42,0,0,1,5.52-4.67,1,1,0,0,0,.13-1.6,1.84,1.84,0,0,0-2.09.15Z"/><path class="cls-3" d="M271.82,633.26a9.82,9.82,0,0,1-4.07,2.69,8.9,8.9,0,0,1-3.47-.14,26,26,0,0,0-10.58.18c-.25,0-1.44.39-1.33.8s1.36.07,1.56,0a16.71,16.71,0,0,1,6-.25,41.87,41.87,0,0,0,4.59.64,14,14,0,0,0,9.94-4.2c.46-.44-.42-.45-.68-.43a3.45,3.45,0,0,0-1.94.68Z"/><path class="cls-3" d="M302.66,594.52a34,34,0,0,0,4,9.07c.14.21.58.28.8.3a2.46,2.46,0,0,0,1.13-.22c.48-.23,1.12-.68.75-1.26a32.68,32.68,0,0,1-3.81-8.66c-.17-.63-1.2-.55-1.66-.42s-1.41.56-1.23,1.19Z"/><path class="cls-3" d="M331.86,585a34.1,34.1,0,0,0,4,9.09c.36.57,1.46.42,2,.16s1.09-.79.7-1.4a32.79,32.79,0,0,1-3.8-8.63c-.18-.66-1.16-.69-1.69-.53s-1.39.62-1.2,1.31Z"/><path class="cls-3" d="M328.22,595.55a14.54,14.54,0,0,0,5.27,7.45,32.39,32.39,0,0,0,3.52,2.06,5.81,5.81,0,0,1,2.43,2c1.5,2.58-.51,6-2.29,7.91a10.33,10.33,0,0,1-3.15,2.33,9.25,9.25,0,0,1-1.14.44s-1,.25-.49.14c-.3.07-1.7.33-1.7.77s.85.3,1.15.24a16.64,16.64,0,0,0,6.25-2.68c2.34-1.71,4.76-4.82,4.79-7.84S340,604.3,337.78,603a14.36,14.36,0,0,1-6.66-8.26c-.2-.62-3.08.22-2.9.78Z"/><path class="cls-3" d="M330.37,628.6a20.62,20.62,0,0,1-7.55,5.2,24.94,24.94,0,0,1-9.22,1.47,43.83,43.83,0,0,1-7.14-.79c-2-.36-4.13-.42-5.85.93-4.24,3.33-2.23,10.18,1.35,13.09a17,17,0,0,0,11.73,3.65,23.4,23.4,0,0,0,13.13-5.52c.49-.41.27-.89-.28-1a2.51,2.51,0,0,0-2.05.55,18.58,18.58,0,0,1-9.68,4.33,14.24,14.24,0,0,1-10.38-3.29,8.8,8.8,0,0,1-3.17-5.93c-.14-1.46.07-4.91,1.8-5.37a7.11,7.11,0,0,1,2.53.35c1.32.24,2.64.43,4,.55a38,38,0,0,0,6.13.05,25.73,25.73,0,0,0,17-7.74c1.17-1.22-1.65-1.2-2.33-.49Z"/><path class="cls-3" d="M305.55,578.37a8.69,8.69,0,0,0-12,2.46,7.51,7.51,0,0,0-.76,1.46c-.22.6.93.61,1.23.56.58-.08,1.43-.33,1.66-1,0-.14.12-.28.18-.42v0l.13-.24.25-.42a7.34,7.34,0,0,1,.85-1.08l.12-.12c.11-.1.23-.21.35-.3l.28-.22c-.18.13.15-.1.19-.12l.39-.22c-.26.13.13,0,.15-.06l.25-.1-.05,0c.05,0,.48-.11.27-.07a4,4,0,0,1,1.75.05,5.61,5.61,0,0,1,1.4.51c.18.09.35.19.52.29s-.14-.09,0,0l.13.09a2.08,2.08,0,0,0,1.91,0c.23-.09,1.32-.72.79-1.1Z"/><path class="cls-3" d="M325.31,572.84c.17-.15.36-.29.55-.43s-.09,0,0,0l.21-.12.26-.15c-.3.18,0,0,.07,0l.32-.13c-.25.1-.05,0,.09,0s-.13,0,.05,0,.4-.05.29-.05.2,0,.23,0,.39,0,.19,0a6,6,0,0,1,.72.11,5.78,5.78,0,0,1,1.81.86,6.36,6.36,0,0,1,.91.8c.61.66,3.36-.37,2.71-1.08-2.76-3-7.79-2.69-10.71-.09-.14.12-.36.33-.31.55s.37.3.55.33a2.8,2.8,0,0,0,2.05-.55Z"/><path class="cls-3" d="M287.17,524.91a55.71,55.71,0,0,0-32.9,5.53A64.41,64.41,0,0,0,235,546a73.22,73.22,0,0,0-14.88,27.65,104.15,104.15,0,0,0-3.58,26.05,116.84,116.84,0,0,0,3.88,34.07c.35,1.29,3.25.52,2.89-.77a109.75,109.75,0,0,1-3.89-31.12,119.08,119.08,0,0,1,2.33-23.29c3.85-17.71,14.29-34.4,29.74-44.25A51.55,51.55,0,0,1,286.15,527c1.38.19,3-1.77,1-2Z"/><path class="cls-3" d="M304,529.06c-5-6-12.66-8.29-20.23-7.26-.39.06-1.61.33-1.69.83s.91.38,1.18.34a21.23,21.23,0,0,1,8.26.6,19.6,19.6,0,0,1,9.76,6.51c.47.57,3.22-.41,2.72-1Z"/><path class="cls-3" d="M308.09,527.05a11.18,11.18,0,0,1-3-5.55,8.42,8.42,0,0,1,.38-5.58,3.38,3.38,0,0,1,2.46-1.74c1.07-.15,1.69.59,1.95,1.55a7.49,7.49,0,0,1,0,3.23c0,.22-.09.44-.14.66.08-.31,0,.1-.06.17a6.21,6.21,0,0,1-.31.7c-.45.88-1,1.71-1.5,2.56q-1.31,2.21-2.53,4.46c-.34.65.32,1.21.91,1.29a1.87,1.87,0,0,0,1.88-.9q1.26-2.34,2.62-4.64c.48-.81,1-1.61,1.44-2.46a8.46,8.46,0,0,0,.44-6.32c-1.38-3.53-6.07-2.9-8.47-.81-2.18,1.91-2.5,4.87-2.13,7.58a12.66,12.66,0,0,0,3.38,7.11,1.7,1.7,0,0,0,2,.25C307.88,528.38,308.61,527.6,308.09,527.05Z"/><path class="cls-3" d="M821,172.4a41.35,41.35,0,0,1,.21-7,16.53,16.53,0,0,1,1.5-6,3.93,3.93,0,0,1,.7-1,2.84,2.84,0,0,1,.31-.26c.1.19-.81,0-.25.16a4.64,4.64,0,0,1,1.7.79,3.13,3.13,0,0,1,1.06,1.75,4.06,4.06,0,0,1-.34,2.76,8,8,0,0,1-2.3,2.26,18,18,0,0,0-5.47,7.14c-.22.51,1,.38,1.18.35.49-.08,1.46-.3,1.69-.83a16.24,16.24,0,0,1,2.39-4.08,20.34,20.34,0,0,1,3.21-3,6.45,6.45,0,0,0,2.41-2.89,4.46,4.46,0,0,0-.18-3.33c-1.44-2.71-5.46-2.74-7.65-1-1.79,1.42-2.3,4-2.62,6.13a40.51,40.51,0,0,0-.45,8.8C818.09,173.78,821,173.26,821,172.4Z"/><path class="cls-3" d="M822.43,174.39a4,4,0,0,1,3.13-2,11.33,11.33,0,0,1,3.9.81c1.08.42,2.33,1.27,1.39,2.5a3.08,3.08,0,0,1-.86.75c-.07.05-.25.11-.11.06,0,0-.21,0,0,0a3.58,3.58,0,0,1-1.62-.78,11.49,11.49,0,0,0-6.22-2,3.52,3.52,0,0,0-2,.55c-.42.3-.41.73.2.74a9.91,9.91,0,0,1,3.45.65,21.51,21.51,0,0,1,2.72,1.56c2.13,1.2,5.17.21,6.83-1.4.55-.54,1.16-1.42.84-2.23a3.07,3.07,0,0,0-1.72-1.44,13.22,13.22,0,0,0-5.37-1.12,8.89,8.89,0,0,0-7.15,3.41c-.37.51.33.59.71.57A2.89,2.89,0,0,0,822.43,174.39Z"/><path class="cls-3" d="M123.3,941.12l6.14,18.27,3,8.9c.77,2.31,1.24,4.79-.83,6.62-1,.88-2.54,1.17-3.75,1.61l-4.66,1.7-9.11,3.31-18,6.53c-1.19.43-2.17,1-3.44.58a4.87,4.87,0,0,1-2.76-2.14,6.83,6.83,0,0,1-.53-1.21c-.32-.88-.62-1.77-.93-2.65L84.28,970.8,72.12,936.23c-2.42-6.87-5-13.7-7.26-20.63a5.15,5.15,0,0,1,.35-4.22,4.12,4.12,0,0,1,2.86-2l4.81-1.3,18.28-4.94,9.39-2.53c2.52-.68,5.57-2.28,8-.58a5.56,5.56,0,0,1,2,2.94c.55,1.58,1.06,3.16,1.59,4.74q1.51,4.5,3,9t3,9c.25.76,3.13-.08,2.9-.78q-3.25-9.69-6.52-19.4c-.83-2.5-1.33-5.48-3.85-6.85-2.37-1.29-4.82-.59-7.26.07l-19.73,5.33-9.62,2.6L69.23,908A20.26,20.26,0,0,0,65,909.34a5.84,5.84,0,0,0-3,7.19c.31.91.64,1.82,1,2.73L67.46,932l12.93,36.76,4.77,13.57c1,2.93,1.72,6.5,5.15,7.52,2.53.75,5-.3,7.3-1.16l9.58-3.47,18.9-6.88,4.67-1.7a9.63,9.63,0,0,0,3.48-1.87,5.67,5.67,0,0,0,1.56-5.84c-1.93-6.46-4.31-12.82-6.45-19.21l-3.15-9.37c-.25-.76-3.13.08-2.9.78Z"/><path class="cls-3" d="M117.83,940.66q2.3,6.8,4.57,13.58,1.17,3.51,2.36,7c.54,1.64,1.23,3.66-.45,4.91a10.77,10.77,0,0,1-2.81,1.14l-3.5,1.27-6.78,2.47-13.64,5c-1.78.65-3.5,1.31-4.77-.61a4.33,4.33,0,0,1-.42-.9c-.25-.67-.47-1.34-.71-2l-3.11-8.85-9.23-26.24c-1.93-5.48-4-10.93-5.78-16.45a3.63,3.63,0,0,1-.23-1.7c.28-2.25,2.28-2.48,4.12-3l13.86-3.74,7.17-1.94,3.34-.9a15,15,0,0,1,3.32-.83c2.21-.05,2.8,2.34,3.36,4l2.29,6.84c.77,2.29,1.53,4.57,2.3,6.85.42,1.26,3.31.46,2.9-.78q-2.51-7.43-5-14.87a5.35,5.35,0,0,0-3.53-3.84c-2.08-.61-4.14.21-6.15.75l-15.06,4.07-7.41,2c-2.12.57-4.71.86-6.49,2.25a5,5,0,0,0-1.68,5.67c.26.75.53,1.49.79,2.23l3.52,10L85,962.4l3.61,10.26c.89,2.55,1.54,5.27,4.61,6,2.14.5,4.1-.47,6.06-1.18l7.48-2.72,14.62-5.31c1.94-.71,4.29-1.19,5.71-2.8a5,5,0,0,0,1.07-4.74c-1.45-5-3.31-9.85-5-14.75q-1.22-3.63-2.44-7.25c-.42-1.26-3.31-.46-2.9.77Z"/><path class="cls-3" d="M877.4,178.46A80.49,80.49,0,0,1,873.75,159a84.07,84.07,0,0,1,.56-16.48c.74-5.35,3-10.19,7.59-13.3a24.71,24.71,0,0,1,13-3.77,34.59,34.59,0,0,1,18.67,4.4c8.73,5,15,15.31,13.92,25.55-.71,7.13-5.29,12.67-9.63,18a74.15,74.15,0,0,1-15.15,14.13c-.45.31-.79.81-.24,1.2a2.23,2.23,0,0,0,2.06-.25,76.58,76.58,0,0,0,14.61-13.24c4-4.77,8.49-9.9,10.39-16,3.34-10.64-2.07-22.51-10.71-28.95a35.75,35.75,0,0,0-21.09-6.65c-10.06-.07-21.26,3.65-25,13.9-2,5.39-1.91,11.66-1.93,17.33a79.1,79.1,0,0,0,2.17,18.58c.47,1.95,1,3.87,1.61,5.78.34,1.07,3.23.27,2.9-.78Z"/><path class="cls-3" d="M876,186.63a97.12,97.12,0,0,0,9.52,5,61.49,61.49,0,0,0,7.66,3.28,16,16,0,0,0,2.74.62c1.26.15,2.43.17,3.22,1.34a3.34,3.34,0,0,1,.59,2.35c-.14.76-.4.85-1,.88a26.14,26.14,0,0,1-4.67-.4,32.52,32.52,0,0,1-10.53-2.79,31.9,31.9,0,0,1-4.92-3.28,5.87,5.87,0,0,0-3.81-1.49c-2.5.12-6.29,2.1-5.65,5.14.53,2.48,3.52,4.14,5.53,5.27a50.35,50.35,0,0,0,19.57,6.29,3.16,3.16,0,0,0,2-.55c.4-.35.43-.64-.19-.71a48.4,48.4,0,0,1-17.67-5.47c-2.16-1.14-5.33-2.7-6.25-5.16-.43-1.15.16-3.65,1.7-3.48a4.62,4.62,0,0,1,1.84,1.06c.81.61,1.6,1.25,2.43,1.82a25.85,25.85,0,0,0,10,4,40.9,40.9,0,0,0,9.35,1c2.31-.12,5.78-1,5.06-4.06A3.67,3.67,0,0,0,900,194.6c-.89-.26-1.82-.21-2.73-.38a33.82,33.82,0,0,1-7.74-3,104.22,104.22,0,0,1-10.79-5.63,2.44,2.44,0,0,0-1.87.13c-.16.06-1.32.6-.85.88Z"/><path class="cls-3" d="M873,206.39c-.06,2.21-.23,4.41-.37,6.61a6.51,6.51,0,0,0,1,4.35c1.92,2.85,6,4.26,9.13,2.57a26.16,26.16,0,0,0,3.06-2.08q1.74-1.28,3.46-2.61c.47-.36.75-1.06.16-1.47a1.92,1.92,0,0,0-2.08.17c-1.72,1.34-3.45,2.67-5.25,3.9l-.51.34c-.15.09,0,0,0,0l-.23.13-.33.15c-.24.13,0,0,.07,0a1.52,1.52,0,0,1-.2.06,4.19,4.19,0,0,1-2.16-.32,5.9,5.9,0,0,1-2.35-1.93,4.85,4.85,0,0,1-.87-2,5.45,5.45,0,0,1,0-1.42c.14-2.23.32-4.45.38-6.68.05-1.5-2.89-1.07-2.93.22Z"/><path class="cls-3" d="M887.47,176a55.64,55.64,0,0,0,6.78-12.88,23.24,23.24,0,0,0,.92-13.89c-.82-3.34-2.76-7.63-7-6.18a7.39,7.39,0,0,0-4.4,4.51,5.88,5.88,0,0,0,1.31,5.71,34,34,0,0,0,5.13,4.75,24.93,24.93,0,0,0,5,3.17c4.5,2.12,10.06,3.35,14.87,1.69a15.66,15.66,0,0,0,5.8-3.55c1.22-1.2,2.37-3,1.44-4.71s-3.22-2.46-5-2.73a9.32,9.32,0,0,0-6.2,1.17c-2.18,1.32-3.79,3.46-5.41,5.39a36.71,36.71,0,0,0-4.15,5.83,24.62,24.62,0,0,0-2.39,16.17c.23,1.31,3.14.58,2.9-.77a23.25,23.25,0,0,1,.9-12.07,30.24,30.24,0,0,1,5.72-9,18.64,18.64,0,0,1,4-4,5.62,5.62,0,0,1,4.69-.38c1.24.39,2.89,1.31,2.26,2.84s-2.37,2.58-3.72,3.29c-3.74,2-7.83,1.2-11.64-.12a26.87,26.87,0,0,1-8.77-5.53c-1.41-1.22-3.14-2.65-3.8-4.47a4.4,4.4,0,0,1,1.47-4.77c2.54-2.16,3.91,3.56,4.26,5.19a21.8,21.8,0,0,1-1.15,12.74,53.67,53.67,0,0,1-6.22,11.8c-1.06,1.49,1.66,1.89,2.42.83Z"/><path class="cls-3" d="M914.83,70l-3.52,13.93-5.64,22.37-1.29,5.12c-.14.57,2.67.2,2.85-.52l3.52-13.93,5.64-22.37,1.29-5.12c.15-.57-2.67-.19-2.85.52Z"/><path class="cls-3" d="M927.08,120.52l6.54-6.54.93-.93c.45-.45-.41-.49-.68-.46a3.36,3.36,0,0,0-1.94.69l-6.54,6.53-.93.93c-.45.45.4.49.68.47a3.44,3.44,0,0,0,1.94-.69Z"/><path class="cls-3" d="M945.06,105.65,959.3,91.74l2-1.95A.67.67,0,0,0,961,88.6a2.24,2.24,0,0,0-2.05.55l-14.24,13.91-2,2a.67.67,0,0,0,.32,1.19,2.27,2.27,0,0,0,2-.55Z"/><path class="cls-3" d="M939.79,144.56l27-6.89,3.81-1c.45-.11,1.41-.53,1.25-1.15s-1.23-.48-1.65-.37l-27,6.89-3.81,1c-.45.12-1.41.54-1.25,1.15s1.24.48,1.66.38Z"/><path class="cls-3" d="M932.46,169.38l17.33,15.2,2.45,2.15a1.81,1.81,0,0,0,2,.13c.35-.16,1.26-.86.72-1.34l-17.33-15.2-2.45-2.15a1.79,1.79,0,0,0-1.94-.13c-.36.16-1.27.87-.73,1.34Z"/><path class="cls-3" d="M958.57,192.09l4.25,4.25.6.6a1.17,1.17,0,0,0,.77.21,2.8,2.8,0,0,0,1.14-.23c.3-.13,1.24-.63.79-1.08l-4.24-4.25-.61-.6a1.17,1.17,0,0,0-.77-.21,2.72,2.72,0,0,0-1.13.23c-.31.13-1.25.63-.8,1.08Z"/><path class="cls-3" d="M836.63,98l23.5,23.7,3.37,3.41c.75.76,3.5-.33,2.69-1.16l-23.49-23.7-3.38-3.41c-.75-.76-3.5.34-2.69,1.16Z"/><path class="cls-3" d="M886.42,112.5l-3.77-10-.54-1.43a1.38,1.38,0,0,0-1.72-.63c-.52.14-1.43.73-1.18,1.41l3.77,10,.54,1.42a1.37,1.37,0,0,0,1.72.63c.52-.14,1.43-.72,1.18-1.4Z"/><path class="cls-3" d="M880.13,95.75l-7.75-20.67-1.1-2.94c-.34-.88-3.2,0-2.9.78l7.75,20.67,1.1,2.94c.34.88,3.2,0,2.9-.78Z"/><path class="cls-3" d="M839.68,150l18.76.16,2.7,0a2.08,2.08,0,0,0,1.9-.84c.3-.59-.26-1-.83-1l-18.76-.16-2.7,0a2.08,2.08,0,0,0-1.9.84c-.3.59.26,1,.83,1Z"/><path class="cls-3" d="M821.61,149.77h8.77a2.72,2.72,0,0,0,1.93-.73c.43-.52-.38-.64-.73-.64h-8.77a2.73,2.73,0,0,0-1.93.74c-.43.52.38.63.73.63Z"/><path class="cls-3" d="M647.59,246c-.44-.27-.94-.55-1.42-.88-7-4.74-13.9-9.51-20.88-14.23-1.92-1.3-3-3-2.64-5.3s2.09-3.12,4.15-3.63a8.2,8.2,0,1,0-9.75-6.72c.27,2.1.13,4.05-1.83,5.22s-4.09.8-6.07-.57c-6.82-4.72-13.69-9.36-20.54-14l-1.73-1.19c.35-.61.61-1.12.93-1.59,4.52-6.63,9-13.27,13.59-19.89a8,8,0,0,1,1.9-2c3.61-2.59,6.7-1.43,7.84,2.88,1.69,6.38,8.89,8.67,13.64,4.34a8.18,8.18,0,0,0,2.13-8.7,8,8,0,0,0-7.07-5.48,6.56,6.56,0,0,0-1.77.05c-2.13.37-4.18.32-5.4-1.77-1.34-2.3-.8-4.63.56-6.7,2.94-4.45,6-8.82,9-13.23l5.9-8.64c.68.42,1.29.76,1.86,1.15,6.85,4.67,13.68,9.38,20.57,14a11.74,11.74,0,0,0,3.17,1,11.46,11.46,0,0,0,.71-3.21,10.79,10.79,0,0,1,6.11-11,10.55,10.55,0,0,1,12.14,2.37,10.43,10.43,0,0,1,1.41,12.6,10.84,10.84,0,0,1-6.79,5A3.87,3.87,0,0,0,665,167.5c-.56,1.26.69,1.91,1.63,2.55L689,185.35a15.06,15.06,0,0,1-.75,1.41q-7,10.37-14.14,20.7a7.23,7.23,0,0,1-2,1.91c-3.47,2.27-6.42,1.1-7.48-2.89-1-3.84-3.42-6.18-6.93-6.65a7.85,7.85,0,0,0-7.89,3.45,7.74,7.74,0,0,0-.43,8.59,7.94,7.94,0,0,0,7.47,4.26,5.52,5.52,0,0,0,1-.09c2.07-.38,4-.21,5.22,1.77a5.46,5.46,0,0,1-.2,6c-4.88,7.34-9.92,14.58-14.9,21.85C648,245.77,647.82,245.81,647.59,246Zm-18.71-98.76c-.47.62-.8,1-1.09,1.45q-6.13,9-12.24,17.94a5.93,5.93,0,0,0-.84,1.54c-1,3.14.19,4.25,3,3.85a10.46,10.46,0,0,1,11.94,8.67,10.62,10.62,0,0,1-8.24,12.11,10.44,10.44,0,0,1-12.45-7.92c-.65-2.82-2.18-3.39-4.65-1.41a6.42,6.42,0,0,0-1.14,1.34q-6.07,8.88-12.12,17.78c-.29.42-.5.88-.83,1.47l1.69,1.15q9,6.12,17.93,12.24c1.27.88,2.71,2,4.05.91.72-.63.74-2.35.67-3.55a10.76,10.76,0,0,1,6.25-10.51,10.57,10.57,0,0,1,13.69,14.55,10.82,10.82,0,0,1-7.5,5.58c-.72.18-1.78.87-1.84,1.41a5.34,5.34,0,0,0,.91,2.63c.19.36.73.54,1.11.8q9.12,6.24,18.26,12.46c.53.36,1.09.67,1.77,1.09,4.62-6.78,9.23-13.42,13.66-20.17a4.22,4.22,0,0,0,.13-3.5c-.24-.55-2-.71-3-.62a10.7,10.7,0,0,1-10.72-5.55,10.1,10.1,0,0,1,.76-11.19,10,10,0,0,1,10.39-4.2c4.39.82,7.18,3.55,8.49,7.86.3,1,1.14,2.55,1.64,2.52,1.17-.06,2.31-.91,3.4-1.54.36-.21.54-.73.8-1.11l10.46-15.33,2.64-3.86L684,184.76c-6.53-4.45-13-8.92-19.58-13.33a4.09,4.09,0,0,1-1.91-4,4,4,0,0,1,3-3.56c.56-.19,1.15-.3,1.72-.46a8.2,8.2,0,1,0-10.32-7.1c.06.72.21,1.44.2,2.16a4.25,4.25,0,0,1-5.25,4.15,5.66,5.66,0,0,1-1.7-.93Z"/><path class="cls-3" d="M167.71,581.45a65.72,65.72,0,0,0,30.75,6.44c1.66-.06,2.22-2.24.24-2.17a62.8,62.8,0,0,1-29.33-6.26c-1.23-.59-3.33,1.19-1.66,2Z"/><path class="cls-3" d="M159.91,555.63a31.84,31.84,0,0,0-6.67-15.49,33.51,33.51,0,0,0-11-8.56c-8.78-4.36-18.89-5.63-28.59-5.2a66.84,66.84,0,0,0-38.51,14,59.66,59.66,0,0,0-17.88,22.73c-4.07,9.12-6.38,19.14-5,29.14A41.85,41.85,0,0,0,64,615.78,38.41,38.41,0,0,0,78.46,625a40.76,40.76,0,0,0,19.08,1.65,96.49,96.49,0,0,0,17.51-4.53,93.38,93.38,0,0,0,17-7.54A98.91,98.91,0,0,0,155.24,596c1.26-1.36,2.47-2.75,3.66-4.17s-1.64-1.52-2.37-.65a100,100,0,0,1-19.06,17.69c-9.33,6.56-19.72,10.94-30.67,14A51.22,51.22,0,0,1,89,625.1a34.85,34.85,0,0,1-17.4-6.37,40.76,40.76,0,0,1-14.15-18.34c-4.12-10.65-3.09-22.36.82-32.9a58.65,58.65,0,0,1,14.08-22A63.11,63.11,0,0,1,90.9,533.17c1.14-.5,2.29-1,3.46-1.4l1.08-.39,1.11-.36a60.61,60.61,0,0,1,9.43-2.1c17.89-2.6,41.66,1.09,49.11,20.15A34.41,34.41,0,0,1,157,556.4c.18,1.15,3.09.45,2.9-.77Z"/><path class="cls-3" d="M82.56,570.55l29.21-13.37,4.2-1.93c.47-.22,1.13-.77.72-1.33s-1.45-.36-1.94-.13L85.54,567.17l-4.19,1.92c-.48.22-1.14.78-.73,1.34s1.45.35,1.94.12Z"/><path class="cls-3" d="M73.63,594l20.78-9.67,33.08-15.38,7.53-3.5c.51-.24,1.11-.85.7-1.43s-1.43-.42-2-.17L113,573.46,79.89,588.85l-7.52,3.5c-.51.24-1.11.84-.7,1.42s1.43.42,2,.18Z"/><path class="cls-3" d="M99.05,600.13l24.32-11.31,3.49-1.62c.54-.26,1.92-1.09.72-1.46s-3,.27-4,.75L99.22,597.8l-3.49,1.62c-.55.26-1.92,1.09-.73,1.46s3-.27,4-.75Z"/><path class="cls-3" d="M612.34,238.4a34.92,34.92,0,0,0,5.28,25.17,36.89,36.89,0,0,0,17.09,13.26,35,35,0,0,0,5.66,1.77,2.17,2.17,0,0,0,2-.55.73.73,0,0,0-.34-1.27C629,274,618,263.8,615.4,250.48a35.1,35.1,0,0,1-.14-12.35c.22-1.34-2.73-.92-2.92.27Z"/><path class="cls-3" d="M608.42,604.12a63,63,0,0,1,11.16,15.62l-.15-.54h0c0,1.53,2.94,1.11,2.94-.21a5.05,5.05,0,0,0-.88-2c-.37-.71-.76-1.4-1.16-2.09-.9-1.54-1.86-3-2.89-4.49a64.46,64.46,0,0,0-6.37-7.62,1.7,1.7,0,0,0-2-.23c-.45.22-1.2,1-.68,1.52Z"/><path class="cls-3" d="M753,355.37a42.3,42.3,0,0,0,16.66-3.48c24.6-10.78,29.09-42.12,29.5-45.32a8.15,8.15,0,0,1-3.22-.41,8,8,0,0,1-3-1.82,43.24,43.24,0,0,1-18.91,23,42.47,42.47,0,0,1-22.57,5.5c.53,3.18,1,6.64,1.25,10.37A116.43,116.43,0,0,1,753,355.37Z"/><path class="cls-3" d="M752.83,356.38a44.28,44.28,0,0,0,33.8-16.3c6.13-7.52,10.11-16.64,12.47-26a65.94,65.94,0,0,0,1.5-7.63c.09-.72-.79-.91-1.32-.88a6.88,6.88,0,0,1-5-1.85c-.65-.61-2.36-.49-2.71.48-4.57,13-15.32,23.38-28.88,26.58a40.52,40.52,0,0,1-10.7,1.06c-.77,0-2.13.37-2,1.39a119.44,119.44,0,0,1,1.52,22.27c0,1.45,2.9,1,2.93-.25a120.88,120.88,0,0,0-1.56-22.8l-2,1.39A44.88,44.88,0,0,0,775,327.92a44.05,44.05,0,0,0,16.31-16.79,43.6,43.6,0,0,0,3-6.65l-2.71.48a9.78,9.78,0,0,0,7.41,2.61l-1.32-.87a70.6,70.6,0,0,1-4.59,17.18c-3.87,9.66-9.92,18.68-18.78,24.39a40.2,40.2,0,0,1-21.18,6.1C751.51,354.4,750.85,356.41,752.83,356.38Z"/><path class="cls-3" d="M300.94,680.44a79.18,79.18,0,0,0,13.72,2.25,80.62,80.62,0,0,0,29.28-3.26c-1.1-3.3-2.15-6.86-3.11-10.65-.61-2.43-1.13-4.8-1.59-7.08a46,46,0,0,1-51.57,2.79,86.53,86.53,0,0,0,6.09,8.29A88.4,88.4,0,0,0,300.94,680.44Z"/><path class="cls-3" d="M299.75,681a83.44,83.44,0,0,0,44.31-1.13c.23-.06,1.47-.41,1.33-.83a148.82,148.82,0,0,1-4.7-17.73c-.15-.75-2.47.28-2.76.5a43.49,43.49,0,0,1-41.18,5.88A45.85,45.85,0,0,1,289,664c-.43-.26-3.14.38-2.82.88a89.28,89.28,0,0,0,13.36,16c.54.52,3.17-.56,2.73-1a88.23,88.23,0,0,1-13.19-15.85l-2.81.88c14.06,8.43,31.85,8.71,46.46,1.43a48.7,48.7,0,0,0,7.78-4.82l-2.76.5a148.86,148.86,0,0,0,4.71,17.73l1.33-.84a78.41,78.41,0,0,1-41.7.9,3.24,3.24,0,0,0-2,.37C299.86,680.38,299.12,680.84,299.75,681Z"/><line class="cls-4" x1="102.82" y1="892.05" x2="102.82" y2="791.94"/><path class="cls-4" d="M601.59,703.37V950.28c0,5.45-3.74,9.88-8.36,9.88H397.68"/><polyline class="cls-4" points="193.72 665.28 204.11 665.28 212.12 665.28"/><line class="cls-4" x1="499.07" y1="665.28" x2="423.22" y2="665.28"/><path class="cls-4" d="M102.82,688V675.15a9.87,9.87,0,0,1,9.87-9.87h15.62"/><path class="cls-3" d="M186.37,713.45c0,19.44-.1,38.89.09,58.33,0,4.08-.72,5.76-5.32,5.62-10.25-.32-10.26,0-10.26-10.56,0-37.06.1-74.12-.11-111.17,0-4.91,1.06-6.61,6.23-6.37,9.36.43,9.37.11,9.37,9.67Z"/><path class="cls-3" d="M184.13,628.83c.11,2.38-.73,4.06-3,4.69-2,.55-3-.65-3.67-2.4-1.46-3.84-3.3-3.42-5.14-.3-24.16,40.7-59.08,70.28-98.56,95.09-4.63,2.91-9.72,5.08-14.58,7.62-2.28,1.19-4.5,1.14-5.62-1.31s-.57-4.39,2.34-5.66c16.8-7.36,31.51-18.13,45.91-29.24,6.82-5.26,13.1-11.32,19.54-17.12,12.56-11.31,24.3-23.27,34.39-36.84a134.92,134.92,0,0,0,10.9-17.14c.6-1.12,1.63-2.37.85-3.56-1-1.6-2.33-.14-3.32.35-2.45,1.23-4.78,1.51-6-1.31s.72-4.3,3.08-5.44q6.69-3.21,13.27-6.62c2.84-1.49,5-.34,5.72,2.17C181.78,617.4,182.84,623.15,184.13,628.83Z"/><path class="cls-3" d="M151.77,723.1c0-16.33.1-32.66-.08-49,0-3.7.71-5,4.75-4.86,10.72.31,10.72.08,10.72,10.61,0,30.47-.1,60.93.11,91.39,0,4.75-1,6.37-6,6.15-9.48-.41-9.49-.09-9.49-9.71Z"/><path class="cls-3" d="M147.72,732.47c0,13.19-.15,26.38.08,39.57.07,3.92-.69,5.45-5,5.35-10.54-.23-10.55,0-10.55-10.72,0-24.37.09-48.74-.09-73.11,0-4.12.77-5.71,5.32-5.57,10.27.31,10.28,0,10.28,10.4Z"/><path class="cls-3" d="M113,742.09c0-9.89.11-19.78-.06-29.67-.06-3.39.71-4.83,4.5-4.85,10.76-.07,10.76-.24,10.76,10.55,0,18-.15,35.9.11,53.84.06,4.47-1.4,5.51-5.6,5.41-9.71-.23-9.71,0-9.71-9.46Z"/><path class="cls-3" d="M93.53,751.8c0-7,.11-13.95,0-20.93-.07-2.91.54-4.16,3.87-4.24,11.7-.27,11.7-.41,11.7,11.25,0,11.38-.15,22.77.08,34.14.09,3.9-.65,5.47-5,5.37-10.57-.23-10.57,0-10.57-10.73Z"/><path class="cls-3" d="M130.56,781.2h50.05c1.29,0,2.57,0,3.85.11,1.09.07,1.55.78,1.52,1.84s-.64,1.61-1.71,1.63-2.2.05-3.3.05H79.22c-1.1,0-2.2,0-3.3-.08s-1.56-.81-1.55-1.83a1.59,1.59,0,0,1,1.74-1.67c1.28,0,2.57,0,3.85,0Z"/><path class="cls-3" d="M89.47,761.73c0,1.83.11,3.67,0,5.48-.25,3.21,1.58,7.75-.9,9.32-3.37,2.14-8.13.59-12.3.69-2.07.06-2.19-1.47-2.19-3,0-8.22,0-16.43,0-24.65,0-2.33.85-3.41,3.2-3.2a3.37,3.37,0,0,0,.55,0c11.7-.7,11.7-.7,11.7,11Z"/><line class="cls-4" x1="683.35" y1="258.52" x2="627.27" y2="258.52"/><path class="cls-4" d="M558.21,554.28H542.48a10,10,0,0,1-10-10V268.52a10,10,0,0,1,10-10h63.91"/><path class="cls-4" d="M865.86,258.52h155.65a10,10,0,0,1,10,10V544.28a10,10,0,0,1-10,10H850.23"/><path class="cls-4" d="M893.53,317.33h107.29a5,5,0,0,1,5,5V525.76a5,5,0,0,1-5,5H899.53"/><path class="cls-4" d="M581,530.76H563.21a5,5,0,0,1-5-5V322.33a5,5,0,0,1,5-5H670.68"/><line class="cls-4" x1="208.68" y1="712.16" x2="190.68" y2="712.16"/><line class="cls-4" x1="130.17" y1="911.65" x2="130.17" y2="791.73"/><line class="cls-4" x1="491.7" y1="712.16" x2="476.96" y2="712.16"/><path class="cls-4" d="M562.36,712.16h5.43a4.13,4.13,0,0,1,4.13,4.14V928.7a4.13,4.13,0,0,1-4.13,4.13h-91"/><rect class="cls-4" x="984.11" y="270.76" width="34.15" height="34.15"/><rect class="cls-4" x="938.89" y="270.76" width="34.15" height="34.15"/><line class="cls-4" x1="990.63" y1="277.28" x2="1011.73" y2="298.39"/><line class="cls-4" x1="1011.73" y1="277.28" x2="990.63" y2="298.39"/><line class="cls-4" x1="946.61" y1="298.39" x2="965.32" y2="298.39"/></g></svg>